<?xml version="1.0" encoding="UTF-8"?>
<svg id="Layer_1" xmlns="http://www.w3.org/2000/svg" version="1.1" viewBox="0 0 373 496.9">
  <defs>
    <style>
      .st0 {
        fill: #fff;
      }
    </style>
  </defs>
  <path class="st0" d="M54.4,414.1h19.4v82.8h-19.4v-82.8h0Z"/>
  <path class="st0" d="M89.6,494.1c-2-1.9-3-4.3-3-7.2s1-5.3,3-7.2c2-1.9,4.6-2.8,7.7-2.8s5.6.9,7.6,2.8,3,4.3,3,7.2-1,5.3-3,7.2-4.6,2.8-7.6,2.8-5.7-.9-7.7-2.8Z"/>
  <path class="st0" d="M192.3,496.9l-6.1-14.9h-40.8l-6.1,14.9h-20.7l37.1-82.8h20.7l36.9,82.8h-21ZM165.9,432.7l-13.6,32.6h27l-13.4-32.6Z"/>
  <path class="st0" d="M301.1,414.1h17.4v82.8h-19.3v-51.8l-24.4,29.8h-3.8l-24.6-29.9v51.9h-19.3v-82.8h17.4l28.3,35.2,28.3-35.2h0Z"/>
  <g>
    <path class="st0" d="M252.6,65.7c39,38.9,116.9,116.7,116.9,116.7l3.4,3.7-186.5,186.1L0,186.5h0L186.2,0h0c21.8,21.8,44.6,43.9,66.4,65.7ZM194,18.9c-1.5-1.5-7.7-8-7.7-8l-.4.4L11.5,186.1l175,175,175-175-.5-.9c-55.5-55.5-111.6-110.8-166.9-166.3h-.1Z"/>
    <path class="st0" d="M343.4,186.1h0C304.4,147.2,186.5,29.6,186.5,29.6c0,0-117.9,117.6-156.9,156.5h0l156.9,156.7,156.9-156.7h0ZM133.1,186.2l38.6-38v59.2h0v54.3h0v24.6l-100.5-100.5,115.6-115.2,115.6,115.2-100.5,100.5v-24.6h-.1v-54.3h0v-59.2l38.5,38-27.3,27.1v40.7l67.9-67.8-93.9-94h0l-93.9,94,67.9,67.8v-40.7l-27.3-27.1h-.6Z"/>
  </g>
</svg>